<?xml version="1.0" encoding="UTF-8" standalone="no"?>
<!-- Created with Inkscape (http://www.inkscape.org/) -->

<svg
   xmlns:dc="http://purl.org/dc/elements/1.1/"
   xmlns:cc="http://creativecommons.org/ns#"
   xmlns:rdf="http://www.w3.org/1999/02/22-rdf-syntax-ns#"
   xmlns:svg="http://www.w3.org/2000/svg"
   xmlns="http://www.w3.org/2000/svg"
   xmlns:xlink="http://www.w3.org/1999/xlink"
   xmlns:sodipodi="http://sodipodi.sourceforge.net/DTD/sodipodi-0.dtd"
   xmlns:inkscape="http://www.inkscape.org/namespaces/inkscape"
   id="svg2"
   version="1.1"
   inkscape:version="0.92.3 (2405546, 2018-03-11)"
   xml:space="preserve"
   width="432.2049"
   height="413.04892"
   viewBox="0 0 405.19208 387.23336"
   sodipodi:docname="godot-rust.svg"
   inkscape:export-filename="/home/akien/Projects/godot/godot.git/logo.png"
   inkscape:export-xdpi="48"
   inkscape:export-ydpi="48"><metadata
     id="metadata8"><rdf:RDF><cc:Work
         rdf:about=""><dc:format>image/svg+xml</dc:format><dc:type
           rdf:resource="http://purl.org/dc/dcmitype/StillImage" /><dc:title /></cc:Work></rdf:RDF></metadata><defs
     id="defs6"><linearGradient
       inkscape:collect="always"
       id="linearGradient880"><stop
         style="stop-color:#c40084;stop-opacity:1"
         offset="0"
         id="stop876" /><stop
         style="stop-color:#ff5500;stop-opacity:0.96466434"
         offset="1"
         id="stop878" /></linearGradient><clipPath
       clipPathUnits="userSpaceOnUse"
       id="clipPath16"><path
         d="M 0,595.276 H 841.89 V 0 H 0 Z"
         id="path18"
         inkscape:connector-curvature="0" /></clipPath><linearGradient
       inkscape:collect="always"
       xlink:href="#linearGradient880"
       id="linearGradient882"
       x1="99.235344"
       y1="403.58347"
       x2="222.61665"
       y2="90.653694"
       gradientUnits="userSpaceOnUse" /></defs><sodipodi:namedview
     pagecolor="#ffffff"
     bordercolor="#666666"
     borderopacity="1"
     objecttolerance="10"
     gridtolerance="10"
     guidetolerance="10"
     inkscape:pageopacity="0"
     inkscape:pageshadow="2"
     inkscape:window-width="2560"
     inkscape:window-height="1311"
     id="namedview4"
     showgrid="false"
     inkscape:zoom="1.7941495"
     inkscape:cx="315.81436"
     inkscape:cy="142.4261"
     inkscape:window-x="0"
     inkscape:window-y="55"
     inkscape:window-maximized="1"
     inkscape:current-layer="g14"
     fit-margin-top="48"
     fit-margin-left="48"
     fit-margin-right="48"
     fit-margin-bottom="48" /><g
     id="g10"
     inkscape:groupmode="layer"
     inkscape:label="godot_engine_logo_2017_curves-01"
     transform="matrix(1.25,0,0,-1.25,-94.250001,596.60711)"><g
       id="g12"><g
         id="g14"
         clip-path="url(#clipPath16)"><path
           style="color:#000000;font-style:normal;font-variant:normal;font-weight:normal;font-stretch:normal;font-size:medium;line-height:normal;font-family:sans-serif;font-variant-ligatures:normal;font-variant-position:normal;font-variant-caps:normal;font-variant-numeric:normal;font-variant-alternates:normal;font-feature-settings:normal;text-indent:0;text-align:start;text-decoration:none;text-decoration-line:none;text-decoration-style:solid;text-decoration-color:#000000;letter-spacing:normal;word-spacing:normal;text-transform:none;writing-mode:lr-tb;direction:ltr;text-orientation:mixed;dominant-baseline:auto;baseline-shift:baseline;text-anchor:start;white-space:normal;shape-padding:0;clip-rule:nonzero;display:inline;overflow:visible;visibility:visible;opacity:1;isolation:auto;mix-blend-mode:normal;color-interpolation:sRGB;color-interpolation-filters:linearRGB;solid-color:#000000;solid-opacity:1;vector-effect:none;fill:#ececec;fill-opacity:1;fill-rule:nonzero;stroke:none;stroke-width:25;stroke-linecap:butt;stroke-linejoin:miter;stroke-miterlimit:4;stroke-dasharray:none;stroke-dashoffset:0;stroke-opacity:1;color-rendering:auto;image-rendering:auto;shape-rendering:auto;text-rendering:auto;enable-background:accumulate"
           d="M 188.01953 33.835938 L 179.19531 35.798828 C 163.14327 39.367362 146.9449 44.393015 131.49414 52.169922 L 124.41211 55.734375 L 124.61719 63.660156 C 124.87921 73.776743 125.59661 83.676946 126.66016 93.628906 C 123.15078 95.743773 119.4449 98.075879 115.5625 101.19336 L 115.76758 101.03125 C 112.95811 103.19264 109.89049 105.52305 106.75391 108.0625 C 99.306906 103.44878 91.675694 98.998033 83.742188 95.005859 L 75.355469 90.787109 L 68.966797 97.664062 C 57.39749 110.11501 46.35739 123.77919 37.222656 139.32422 L 33.40625 145.82031 L 37.367188 152.22852 C 43.244014 161.73533 49.458096 170.70617 56.041016 179.35352 L 56.041016 246.64258 L 56.041016 255.74219 L 56.041016 262.04688 L 55.892578 262.0332 L 55.951172 275.85547 C 55.974105 281.1976 56.041016 287.34369 56.041016 288.00781 C 56.041016 319.21267 76.987101 343.14856 106.24023 357.13672 C 135.49338 371.12488 173.84946 377.40113 215.95898 377.54883 L 215.98047 377.54883 L 216.10156 377.54883 L 216.22461 377.54883 L 216.24609 377.54883 C 258.35565 377.40113 296.70535 371.12539 325.95312 357.13672 C 355.2009 343.14804 376.14064 319.21077 376.14062 288.00781 C 376.14062 287.34504 376.21179 281.20907 376.23633 275.85938 L 376.29883 262.0332 L 376.16406 262.04688 L 376.16406 179.35352 C 382.74862 170.70442 388.95842 161.73396 394.83594 152.23047 L 398.79883 145.82227 L 394.98242 139.32422 C 385.8491 123.77609 374.80439 110.11366 363.23633 97.664062 L 356.8457 90.785156 L 348.46094 95.005859 C 340.53216 98.996819 332.89901 103.4472 325.45117 108.06055 C 322.31733 105.52169 319.24985 103.19236 316.43164 101.02734 L 316.64453 101.19336 C 312.75976 98.073066 309.05321 95.741813 305.54688 93.628906 C 306.60846 83.678213 307.3266 73.777583 307.58984 63.660156 L 307.79492 55.734375 L 300.71289 52.169922 C 285.26126 44.393415 269.06223 39.365475 253.00195 35.796875 L 244.17383 33.835938 L 239.54883 41.607422 C 234.76777 49.642835 230.47977 58.070048 226.45508 66.486328 L 216.2168 66.486328 C 216.09317 66.486234 216.13868 66.486328 215.99219 66.486328 L 205.74805 66.486328 C 201.72497 58.069301 197.43726 49.641443 192.64648 41.601562 L 188.01953 33.835938 z "
           transform="matrix(0.74999999,0,0,-0.74999999,75.400001,477.28569)"
           id="path828" /><path
           style="fill:url(#linearGradient882);fill-opacity:1;fill-rule:nonzero;stroke:none;stroke-width:1.33333325"
           d="M 181.9082 48 C 166.55002 51.41428 151.35701 56.166574 137.11328 63.335938 C 137.43903 75.913258 138.25207 87.964059 139.90039 100.20508 C 134.36879 103.74905 128.55533 106.79075 123.38867 110.93945 C 118.13909 114.97807 112.77688 118.84313 108.02344 123.56641 C 98.527108 117.28529 88.477474 111.38226 78.123047 106.17188 C 66.96182 118.18366 56.525133 131.14861 48 145.65625 C 54.413827 156.03178 61.11015 165.75693 68.339844 174.98633 L 68.541016 174.98633 L 68.541016 246.64258 L 68.541016 255.74219 L 68.541016 264.02539 C 68.703882 264.02672 68.867937 264.03416 69.029297 264.04883 L 123.61523 269.31055 C 126.47454 269.58653 128.71501 271.88857 128.91406 274.75391 L 130.59766 298.84961 L 178.21289 302.24805 L 181.49219 280.00781 C 181.91745 277.12439 184.39198 274.98828 187.30859 274.98828 L 244.89844 274.98828 C 247.81353 274.98828 250.28761 277.12439 250.71289 280.00781 L 253.99219 302.24805 L 301.60938 298.84961 L 303.29102 274.75391 C 303.49159 271.88857 305.73054 269.58804 308.58984 269.31055 L 363.1543 264.04883 C 363.31566 264.03376 363.47776 264.02699 363.64062 264.02539 L 363.64062 256.91992 L 363.66406 256.91211 L 363.66406 174.98633 L 363.86523 174.98633 C 371.09643 165.75693 377.78824 156.03178 384.20508 145.65625 C 375.68297 131.14861 365.24132 118.18366 354.08008 106.17188 C 343.72868 111.38226 333.67405 117.28529 324.17773 123.56641 C 319.4258 118.84313 314.07354 114.97807 308.81641 110.93945 C 303.65126 106.79075 297.82965 103.74905 292.30859 100.20508 C 293.95239 87.964059 294.7665 75.913258 295.09375 63.335938 C 280.84851 56.166574 265.65675 51.41428 250.29102 48 C 244.15618 58.31068 238.5463 69.475198 233.66016 80.390625 C 227.86614 79.422438 222.04549 79.063514 216.2168 78.994141 L 216.2168 78.986328 C 216.17613 78.986328 216.13818 78.994141 216.10352 78.994141 C 216.06738 78.994141 216.02845 78.986328 215.99219 78.986328 L 215.99219 78.994141 C 210.15293 79.063474 204.33654 79.422438 198.54102 80.390625 C 193.65788 69.475198 188.0521 58.31068 181.9082 48 z M 138.72266 178.25195 C 156.8919 178.25195 171.61914 192.96765 171.61914 211.13086 C 171.61914 229.30614 156.8919 244.0293 138.72266 244.0293 C 120.56246 244.0293 105.83203 229.30614 105.83203 211.13086 C 105.83203 192.96765 120.56246 178.25195 138.72266 178.25195 z M 293.48633 178.25195 C 311.64502 178.25195 326.37305 192.96765 326.37305 211.13086 C 326.37305 229.30614 311.64502 244.0293 293.48633 244.0293 C 275.31407 244.0293 260.58789 229.30614 260.58789 211.13086 C 260.58789 192.96765 275.31407 178.25195 293.48633 178.25195 z M 216.09961 197.49219 C 221.94792 197.49219 226.69922 201.80682 226.69922 207.11523 L 226.69922 237.39844 C 226.69922 242.71137 221.94792 247.02148 216.09961 247.02148 C 210.2513 247.02148 205.51172 242.71137 205.51172 237.39844 L 205.51172 207.11523 C 205.51172 201.80682 210.2513 197.49219 216.09961 197.49219 z M 68.451172 275.80273 C 68.473839 281.07797 68.541016 286.85716 68.541016 288.00781 C 68.541016 339.84625 134.30069 364.76229 216.00195 365.04883 L 216.10156 365.04883 L 216.20312 365.04883 C 297.90441 364.76229 363.64063 339.84625 363.64062 288.00781 C 363.64062 286.83604 363.71219 281.08099 363.73633 275.80273 L 314.67188 280.53516 L 312.98047 304.75977 C 312.77688 307.67939 310.45478 310.00328 307.53516 310.21289 L 249.39062 314.36133 C 249.24886 314.37199 249.10705 314.37695 248.9668 314.37695 C 246.07733 314.37695 243.58499 312.25505 243.1582 309.35352 L 239.82422 286.74219 L 192.38086 286.74219 L 189.04688 309.35352 C 188.59898 312.39681 185.87885 314.58603 182.81445 314.36133 L 124.66992 310.21289 C 121.7503 310.00328 119.4282 307.67939 119.22461 304.75977 L 117.53516 280.53516 L 68.451172 275.80273 z "
           id="path84"
           transform="matrix(0.74999999,0,0,-0.74999999,75.400001,477.28569)" /><path
           inkscape:connector-curvature="0"
           id="path96"
           style="fill:#b50126;fill-opacity:0.97647059;fill-rule:nonzero;stroke:none;stroke-width:0.99999994"
           d="m 198.17748,317.47435 c 0,-9.04164 -7.3281,-16.36974 -16.37652,-16.36974 -9.04391,0 -16.37653,7.3281 -16.37653,16.36974 0,9.04164 7.33262,16.37652 16.37653,16.37652 9.04842,0 16.37652,-7.33488 16.37652,-16.37652" /><path
           inkscape:connector-curvature="0"
           id="path108"
           style="fill:#b50126;fill-opacity:0.97647059;fill-rule:nonzero;stroke:none;stroke-width:0.99999994"
           d="m 276.77813,317.47435 c 0,-9.04164 7.32583,-16.36974 16.36748,-16.36974 9.05069,0 16.37652,7.3281 16.37652,16.36974 0,9.04164 -7.32583,16.37652 -16.37652,16.37652 -9.04165,0 -16.36748,-7.33488 -16.36748,-16.37652" /></g></g></g></svg>